<?xml version="1.0" encoding="UTF-8"?>
<svg version="1.1" xmlns="http://www.w3.org/2000/svg" xmlns:xlink="http://www.w3.org/1999/xlink">
<defs>

</defs>
<symbol id="i-lupa" xmlns="http://www.w3.org/2000/svg" viewBox="0 0 4.09 4.09" shape-rendering="geometricPrecision" text-rendering="geometricPrecision" image-rendering="optimizeQuality" fill-rule="evenodd" clip-rule="evenodd"><path d="M3 2.64A1.662 1.662 0 001.66 0C.74 0 0 .75 0 1.66A1.662 1.662 0 002.64 3l1.09 1.09.36-.36L3 2.64zm-1.34.17c-.63 0-1.15-.52-1.15-1.15 0-.63.52-1.15 1.15-1.15.63 0 1.15.52 1.15 1.15 0 .63-.52 1.15-1.15 1.15z" fill="#666"/><path d="M3 2.64A1.662 1.662 0 001.66 0C.74 0 0 .75 0 1.66A1.662 1.662 0 002.64 3l1.09 1.09.36-.36L3 2.64zm-1.34.17c-.63 0-1.15-.52-1.15-1.15 0-.63.52-1.15 1.15-1.15.63 0 1.15.52 1.15 1.15 0 .63-.52 1.15-1.15 1.15z" fill="#1c70f6"/></symbol>
<symbol id="i-icopersona" xmlns="http://www.w3.org/2000/svg" viewBox="0 0 42.06 35"><g data-name="Capa 2"><g data-name="Capa 1"><circle cx="21.03" cy="19.69" r="14.13" transform="rotate(-11.3 21.018 19.686)" fill="#fff"/><path d="M28.33 7.62a14.11 14.11 0 01-18.05 21.23A14.12 14.12 0 1028.33 7.62z" fill="#ffaebc"/><path d="M21.05 34.3a14.63 14.63 0 112.84-.3 14.76 14.76 0 01-2.84.3zM21 6a13.65 13.65 0 102.72 27A13.65 13.65 0 0021 6z" fill="#223f73"/><path d="M24.28 25.72l-.34-1.35h-5.82l-.34 1.35a2.7 2.7 0 01-1.52 1.81L21 30.07l4.77-2.54a2.7 2.7 0 01-1.49-1.81z" fill="#fff"/><path d="M21 30.56a.48.48 0 01-.23-.06L16 28a.48.48 0 010-.87 2.21 2.21 0 001.25-1.49l.34-1.35a.48.48 0 01.47-.36h5.82a.48.48 0 01.47.36l.34 1.35A2.21 2.21 0 0026 27.09a.48.48 0 010 .91l-4.74 2.5a.48.48 0 01-.26.06zm-3.78-3.06l3.82 2 3.81-2a3.17 3.17 0 01-1-1.66l-.25-1h-5.1l-.25 1a3.17 3.17 0 01-1.03 1.66z" fill="#223f73"/><path d="M26.79 18.32c0 3.88-2.58 7-5.76 7s-5.76-3.14-5.76-7 2.58-5.92 5.76-5.92 5.76 2.04 5.76 5.92z" fill="#fff"/><path d="M21 25.82c-3.44 0-6.24-3.36-6.24-7.5 0-3.83 2.51-6.4 6.24-6.4s6.24 2.57 6.24 6.4c.04 4.13-2.77 7.5-6.24 7.5zm0-12.94c-3.21 0-5.28 2.14-5.28 5.44 0 3.6 2.37 6.54 5.28 6.54s5.28-2.93 5.28-6.54c.03-3.32-2.04-5.44-5.28-5.44z" fill="#223f73"/><path d="M21 16.77a9.32 9.32 0 00-5.51-.37 7.31 7.31 0 00-.24 1.92c0 3.88 2.58 7 5.76 7s5.76-3.14 5.76-7a7.69 7.69 0 00-.12-1.39 9.57 9.57 0 01-5.65-.16z" fill="#fff"/><path d="M26.67 16.93a10.79 10.79 0 01-2.59.35C24 21 21.43 24 18.33 24a4.76 4.76 0 01-.77-.07A5.1 5.1 0 0021 25.34c3.18 0 5.76-3.14 5.76-7a7.69 7.69 0 00-.09-1.41z" fill="#ffaebc"/><path d="M21 25.82c-3.44 0-6.24-3.36-6.24-7.5a7.86 7.86 0 01.26-2 .48.48 0 01.35-.34 9.78 9.78 0 015.8.38 9.08 9.08 0 005.36.15.47.47 0 01.38.06.48.48 0 01.21.32 8.19 8.19 0 01.13 1.47c.03 4.09-2.77 7.46-6.25 7.46zm-5.12-9a7 7 0 00-.16 1.52c0 3.6 2.37 6.54 5.28 6.54s5.28-2.93 5.28-6.54a7.54 7.54 0 000-.8 9.82 9.82 0 01-5.41-.3 8.88 8.88 0 00-4.96-.44z" fill="#223f73"/><path d="M21 33.82a14.09 14.09 0 0010.57-4.72 4 4 0 00-1.76-.79l-3.37-.58a2.7 2.7 0 01-.64-.2L21 30.07l-4.77-2.54a2.7 2.7 0 01-.64.2l-3.37.58a4 4 0 00-1.76.79A14.09 14.09 0 0021 33.82z" fill="#fff"/><path d="M13.45 28.1l-1.19.21a4 4 0 00-1.76.79 14.12 14.12 0 0021.08 0l-.31-.22a14.11 14.11 0 01-17.81-.78z" fill="#ffaebc"/><path d="M21 34.3a14.63 14.63 0 01-10.9-4.89.48.48 0 01.07-.7 4.46 4.46 0 012-.88l3.37-.58a2.2 2.2 0 00.53-.16.48.48 0 01.42 0L21 29.53l4.54-2.42a.48.48 0 01.42 0 2.2 2.2 0 00.53.16l3.37.58a4.46 4.46 0 012 .88.48.48 0 01.07.7A14.63 14.63 0 0121 34.3zm-9.8-5.12a13.64 13.64 0 0019.61 0 3.4 3.4 0 00-1.11-.4l-3.37-.58a3.23 3.23 0 01-.53-.14l-4.54 2.44a.48.48 0 01-.45 0l-4.58-2.44a3.23 3.23 0 01-.53.14l-3.37.58a3.4 3.4 0 00-1.1.4z" fill="#223f73"/><circle cx="34.52" cy="32.54" r="1.28" fill="#fff"/><path d="M34.52 34.31a1.77 1.77 0 111.77-1.77 1.77 1.77 0 01-1.77 1.77zm0-2.57a.8.8 0 10.8.8.8.8 0 00-.8-.8z" fill="#223f73"/><circle cx="40.3" cy="24.83" r="1.28" fill="#ffaebc"/><path d="M40.3 26.6a1.77 1.77 0 111.77-1.77 1.77 1.77 0 01-1.77 1.77zm0-2.57a.8.8 0 10.8.8.8.8 0 00-.8-.83z" fill="#223f73"/><circle cx="38.37" cy="13.27" r="1.28" fill="#fff"/><path d="M38.37 15a1.77 1.77 0 111.77-1.77A1.77 1.77 0 0138.37 15zm0-2.57a.8.8 0 10.8.8.8.8 0 00-.8-.76z" fill="#223f73"/><circle cx="4.33" cy="28.69" r="1.28" fill="#fff"/><path d="M17.53 3.51a1.77 1.77 0 112-1.48 1.77 1.77 0 01-2 1.48zM17.91 1a.8.8 0 10.67.91.8.8 0 00-.67-.91z" fill="#223f73"/><circle cx="1.77" cy="18.41" r="1.28" fill="#fff"/><path d="M1.77 20.18a1.77 1.77 0 111.77-1.77 1.77 1.77 0 01-1.77 1.77zm0-2.57a.8.8 0 10.8.8.8.8 0 00-.8-.8zM6 35a1.77 1.77 0 112-1.5A1.77 1.77 0 016 35zm.39-2.54a.8.8 0 10.67.91.8.8 0 00-.71-.93z" fill="#223f73"/></g></g></symbol>
</svg>