<svg xmlns="http://www.w3.org/2000/svg" viewBox="0 0 42.06 35"><defs><style>.cls-1{fill:#fff;}.cls-2{fill:#ffaebc;}.cls-3{fill:#223f73;}</style></defs><title>IcoPersona</title><g id="Capa_2" data-name="Capa 2"><g id="Capa_1-2" data-name="Capa 1"><circle class="cls-1" cx="21.03" cy="19.69" r="14.13" transform="translate(-3.45 4.5) rotate(-11.3)"/><path class="cls-2" d="M28.33,7.62A14.11,14.11,0,0,1,10.28,28.85,14.12,14.12,0,1,0,28.33,7.62Z"/><path class="cls-3" d="M21.05,34.3A14.63,14.63,0,1,1,23.89,34,14.76,14.76,0,0,1,21.05,34.3ZM21,6a13.65,13.65,0,1,0,2.72,27h0A13.65,13.65,0,0,0,21,6Z"/><path class="cls-1" d="M24.28,25.72l-.34-1.35H18.12l-.34,1.35a2.7,2.7,0,0,1-1.52,1.81L21,30.07l4.77-2.54A2.7,2.7,0,0,1,24.28,25.72Z"/><path class="cls-3" d="M21,30.56a.48.48,0,0,1-.23-.06L16,28a.48.48,0,0,1,0-.87,2.21,2.21,0,0,0,1.25-1.49l.34-1.35a.48.48,0,0,1,.47-.36h5.82a.48.48,0,0,1,.47.36l.34,1.35A2.21,2.21,0,0,0,26,27.09.48.48,0,0,1,26,28L21.26,30.5A.48.48,0,0,1,21,30.56ZM17.22,27.5l3.82,2,3.81-2a3.17,3.17,0,0,1-1-1.66l-.25-1H18.5l-.25,1A3.17,3.17,0,0,1,17.22,27.5Z"/><path class="cls-1" d="M26.79,18.32c0,3.88-2.58,7-5.76,7s-5.76-3.14-5.76-7,2.58-5.92,5.76-5.92S26.79,14.44,26.79,18.32Z"/><path class="cls-3" d="M21,25.82c-3.44,0-6.24-3.36-6.24-7.5,0-3.83,2.51-6.4,6.24-6.4s6.24,2.57,6.24,6.4C27.28,22.45,24.47,25.82,21,25.82Zm0-12.94c-3.21,0-5.28,2.14-5.28,5.44,0,3.6,2.37,6.54,5.28,6.54s5.28-2.93,5.28-6.54C26.31,15,24.24,12.88,21,12.88Z"/><path class="cls-1" d="M21,16.77a9.32,9.32,0,0,0-5.51-.37,7.31,7.31,0,0,0-.24,1.92c0,3.88,2.58,7,5.76,7s5.76-3.14,5.76-7a7.69,7.69,0,0,0-.12-1.39A9.57,9.57,0,0,1,21,16.77Z"/><path class="cls-2" d="M26.67,16.93a10.79,10.79,0,0,1-2.59.35C24,21,21.43,24,18.33,24a4.76,4.76,0,0,1-.77-.07A5.1,5.1,0,0,0,21,25.34c3.18,0,5.76-3.14,5.76-7A7.69,7.69,0,0,0,26.67,16.93Z"/><path class="cls-3" d="M21,25.82c-3.44,0-6.24-3.36-6.24-7.5a7.86,7.86,0,0,1,.26-2,.48.48,0,0,1,.35-.34,9.78,9.78,0,0,1,5.8.38,9.08,9.08,0,0,0,5.36.15.47.47,0,0,1,.38.06.48.48,0,0,1,.21.32,8.19,8.19,0,0,1,.13,1.47C27.28,22.45,24.48,25.82,21,25.82Zm-5.12-9a7,7,0,0,0-.16,1.52c0,3.6,2.37,6.54,5.28,6.54s5.28-2.93,5.28-6.54a7.54,7.54,0,0,0,0-.8,9.82,9.82,0,0,1-5.41-.3h0A8.88,8.88,0,0,0,15.91,16.8Z"/><path class="cls-1" d="M21,33.82A14.09,14.09,0,0,0,31.57,29.1a4,4,0,0,0-1.76-.79l-3.37-.58a2.7,2.7,0,0,1-.64-.2L21,30.07l-4.77-2.54a2.7,2.7,0,0,1-.64.2l-3.37.58a4,4,0,0,0-1.76.79A14.09,14.09,0,0,0,21,33.82Z"/><path class="cls-2" d="M13.45,28.1l-1.19.21a4,4,0,0,0-1.76.79,14.12,14.12,0,0,0,21.08,0l-.31-.22a14.11,14.11,0,0,1-17.81-.78Z"/><path class="cls-3" d="M21,34.3a14.63,14.63,0,0,1-10.9-4.89.48.48,0,0,1,.07-.7,4.46,4.46,0,0,1,2-.88l3.37-.58a2.2,2.2,0,0,0,.53-.16.48.48,0,0,1,.42,0L21,29.53l4.54-2.42a.48.48,0,0,1,.42,0,2.2,2.2,0,0,0,.53.16l3.37.58a4.46,4.46,0,0,1,2,.88.48.48,0,0,1,.07.7A14.63,14.63,0,0,1,21,34.3Zm-9.8-5.12a13.64,13.64,0,0,0,19.61,0,3.4,3.4,0,0,0-1.11-.4l-3.37-.58a3.23,3.23,0,0,1-.53-.14L21.26,30.5a.48.48,0,0,1-.45,0l-4.58-2.44a3.23,3.23,0,0,1-.53.14l-3.37.58A3.4,3.4,0,0,0,11.23,29.18Z"/><circle class="cls-1" cx="34.52" cy="32.54" r="1.28"/><path class="cls-3" d="M34.52,34.31a1.77,1.77,0,1,1,1.77-1.77A1.77,1.77,0,0,1,34.52,34.31Zm0-2.57a.8.8,0,1,0,.8.8A.8.8,0,0,0,34.52,31.74Z"/><circle class="cls-2" cx="40.3" cy="24.83" r="1.28"/><path class="cls-3" d="M40.3,26.6a1.77,1.77,0,1,1,1.77-1.77A1.77,1.77,0,0,1,40.3,26.6Zm0-2.57a.8.8,0,1,0,.8.8A.8.8,0,0,0,40.3,24Z"/><circle class="cls-1" cx="38.37" cy="13.27" r="1.28"/><path class="cls-3" d="M38.37,15a1.77,1.77,0,1,1,1.77-1.77A1.77,1.77,0,0,1,38.37,15Zm0-2.57a.8.8,0,1,0,.8.8A.8.8,0,0,0,38.37,12.47Z"/><circle class="cls-1" cx="4.33" cy="28.69" r="1.28"/><path class="cls-3" d="M17.53,3.51a1.77,1.77,0,1,1,2-1.48A1.77,1.77,0,0,1,17.53,3.51ZM17.91,1a.8.8,0,1,0,.67.91A.8.8,0,0,0,17.91,1Z"/><circle class="cls-1" cx="1.77" cy="18.41" r="1.28"/><path class="cls-3" d="M1.77,20.18a1.77,1.77,0,1,1,1.77-1.77A1.77,1.77,0,0,1,1.77,20.18Zm0-2.57a.8.8,0,1,0,.8.8A.8.8,0,0,0,1.77,17.61Z"/><path class="cls-3" d="M6,35A1.77,1.77,0,1,1,8,33.5,1.77,1.77,0,0,1,6,35Zm.39-2.54a.8.8,0,1,0,.67.91A.8.8,0,0,0,6.35,32.44Z"/></g></g></svg>